<mxfile host="Electron" modified="2024-06-24T13:31:24.451Z" agent="Mozilla/5.0 (Windows NT 10.0; Win64; x64) AppleWebKit/537.36 (KHTML, like Gecko) draw.io/24.6.1 Chrome/124.0.6367.207 Electron/30.0.6 Safari/537.36" etag="Se2gVqaPCUdHZ74ocvYt" version="24.6.1" type="device">
  <diagram name="Page-1" id="5siALuR-vkMO-nMBxnlZ">
    <mxGraphModel dx="1562" dy="909" grid="1" gridSize="10" guides="1" tooltips="1" connect="1" arrows="1" fold="1" page="1" pageScale="1" pageWidth="850" pageHeight="1100" math="0" shadow="0">
      <root>
        <mxCell id="0" />
        <mxCell id="1" parent="0" />
        <mxCell id="JPFXPbjXNzHNKCanP8BA-1" value="Black Box Method of Algorithm" style="swimlane;whiteSpace=wrap;html=1;" parent="1" vertex="1">
          <mxGeometry x="250" y="340" width="300" height="380" as="geometry" />
        </mxCell>
        <mxCell id="JPFXPbjXNzHNKCanP8BA-36" value="Compare&amp;nbsp; Algorithm with tradicional method" style="text;html=1;align=center;verticalAlign=middle;resizable=0;points=[];autosize=1;strokeColor=none;fillColor=none;" parent="JPFXPbjXNzHNKCanP8BA-1" vertex="1">
          <mxGeometry x="20" y="350" width="260" height="30" as="geometry" />
        </mxCell>
        <mxCell id="JPFXPbjXNzHNKCanP8BA-3" value="" style="endArrow=none;html=1;rounded=0;" parent="1" edge="1">
          <mxGeometry width="50" height="50" relative="1" as="geometry">
            <mxPoint y="390" as="sourcePoint" />
            <mxPoint x="250" y="390" as="targetPoint" />
          </mxGeometry>
        </mxCell>
        <mxCell id="JPFXPbjXNzHNKCanP8BA-5" value="Production of single Products" style="edgeLabel;html=1;align=center;verticalAlign=middle;resizable=0;points=[];" parent="JPFXPbjXNzHNKCanP8BA-3" vertex="1" connectable="0">
          <mxGeometry x="-0.016" y="-1" relative="1" as="geometry">
            <mxPoint as="offset" />
          </mxGeometry>
        </mxCell>
        <mxCell id="JPFXPbjXNzHNKCanP8BA-6" value="" style="endArrow=none;html=1;rounded=0;" parent="1" edge="1">
          <mxGeometry width="50" height="50" relative="1" as="geometry">
            <mxPoint y="420" as="sourcePoint" />
            <mxPoint x="250" y="420" as="targetPoint" />
          </mxGeometry>
        </mxCell>
        <mxCell id="JPFXPbjXNzHNKCanP8BA-7" value="Usage of manufactured Products" style="edgeLabel;html=1;align=center;verticalAlign=middle;resizable=0;points=[];" parent="JPFXPbjXNzHNKCanP8BA-6" vertex="1" connectable="0">
          <mxGeometry x="-0.016" y="-1" relative="1" as="geometry">
            <mxPoint as="offset" />
          </mxGeometry>
        </mxCell>
        <mxCell id="JPFXPbjXNzHNKCanP8BA-9" value="" style="endArrow=none;html=1;rounded=0;" parent="1" edge="1">
          <mxGeometry width="50" height="50" relative="1" as="geometry">
            <mxPoint y="450" as="sourcePoint" />
            <mxPoint x="250" y="450" as="targetPoint" />
          </mxGeometry>
        </mxCell>
        <mxCell id="JPFXPbjXNzHNKCanP8BA-10" value="Laser Production of Products" style="edgeLabel;html=1;align=center;verticalAlign=middle;resizable=0;points=[];" parent="JPFXPbjXNzHNKCanP8BA-9" vertex="1" connectable="0">
          <mxGeometry x="-0.016" y="-1" relative="1" as="geometry">
            <mxPoint as="offset" />
          </mxGeometry>
        </mxCell>
        <mxCell id="JPFXPbjXNzHNKCanP8BA-11" value="" style="endArrow=none;html=1;rounded=0;" parent="1" edge="1">
          <mxGeometry width="50" height="50" relative="1" as="geometry">
            <mxPoint y="480" as="sourcePoint" />
            <mxPoint x="250" y="480" as="targetPoint" />
          </mxGeometry>
        </mxCell>
        <mxCell id="JPFXPbjXNzHNKCanP8BA-12" value="Order new Delivery from Supplies" style="edgeLabel;html=1;align=center;verticalAlign=middle;resizable=0;points=[];" parent="JPFXPbjXNzHNKCanP8BA-11" vertex="1" connectable="0">
          <mxGeometry x="-0.016" y="-1" relative="1" as="geometry">
            <mxPoint as="offset" />
          </mxGeometry>
        </mxCell>
        <mxCell id="JPFXPbjXNzHNKCanP8BA-13" value="" style="endArrow=none;html=1;rounded=0;" parent="1" edge="1">
          <mxGeometry width="50" height="50" relative="1" as="geometry">
            <mxPoint y="510" as="sourcePoint" />
            <mxPoint x="250" y="510" as="targetPoint" />
          </mxGeometry>
        </mxCell>
        <mxCell id="JPFXPbjXNzHNKCanP8BA-14" value="Verify Machines Status" style="edgeLabel;html=1;align=center;verticalAlign=middle;resizable=0;points=[];" parent="JPFXPbjXNzHNKCanP8BA-13" vertex="1" connectable="0">
          <mxGeometry x="-0.016" y="-1" relative="1" as="geometry">
            <mxPoint as="offset" />
          </mxGeometry>
        </mxCell>
        <mxCell id="JPFXPbjXNzHNKCanP8BA-15" value="" style="endArrow=none;html=1;rounded=0;" parent="1" edge="1">
          <mxGeometry width="50" height="50" relative="1" as="geometry">
            <mxPoint y="540" as="sourcePoint" />
            <mxPoint x="250" y="540" as="targetPoint" />
          </mxGeometry>
        </mxCell>
        <mxCell id="JPFXPbjXNzHNKCanP8BA-16" value="Production of 3D Printed Components" style="edgeLabel;html=1;align=center;verticalAlign=middle;resizable=0;points=[];" parent="JPFXPbjXNzHNKCanP8BA-15" vertex="1" connectable="0">
          <mxGeometry x="-0.016" y="-1" relative="1" as="geometry">
            <mxPoint as="offset" />
          </mxGeometry>
        </mxCell>
        <mxCell id="JPFXPbjXNzHNKCanP8BA-17" value="" style="endArrow=none;html=1;rounded=0;" parent="1" edge="1">
          <mxGeometry width="50" height="50" relative="1" as="geometry">
            <mxPoint y="570" as="sourcePoint" />
            <mxPoint x="250" y="570" as="targetPoint" />
          </mxGeometry>
        </mxCell>
        <mxCell id="JPFXPbjXNzHNKCanP8BA-18" value="Verify and usage of 3D Printed Components" style="edgeLabel;html=1;align=center;verticalAlign=middle;resizable=0;points=[];" parent="JPFXPbjXNzHNKCanP8BA-17" vertex="1" connectable="0">
          <mxGeometry x="-0.016" y="-1" relative="1" as="geometry">
            <mxPoint as="offset" />
          </mxGeometry>
        </mxCell>
        <mxCell id="JPFXPbjXNzHNKCanP8BA-19" value="" style="endArrow=none;html=1;rounded=0;" parent="1" edge="1">
          <mxGeometry width="50" height="50" relative="1" as="geometry">
            <mxPoint y="600" as="sourcePoint" />
            <mxPoint x="250" y="600" as="targetPoint" />
          </mxGeometry>
        </mxCell>
        <mxCell id="JPFXPbjXNzHNKCanP8BA-20" value="Usage of Electrical Components" style="edgeLabel;html=1;align=center;verticalAlign=middle;resizable=0;points=[];" parent="JPFXPbjXNzHNKCanP8BA-19" vertex="1" connectable="0">
          <mxGeometry x="-0.016" y="-1" relative="1" as="geometry">
            <mxPoint as="offset" />
          </mxGeometry>
        </mxCell>
        <mxCell id="JPFXPbjXNzHNKCanP8BA-21" value="" style="endArrow=none;html=1;rounded=0;" parent="1" edge="1">
          <mxGeometry width="50" height="50" relative="1" as="geometry">
            <mxPoint y="630" as="sourcePoint" />
            <mxPoint x="250" y="630" as="targetPoint" />
          </mxGeometry>
        </mxCell>
        <mxCell id="JPFXPbjXNzHNKCanP8BA-22" value="Change the order of order list" style="edgeLabel;html=1;align=center;verticalAlign=middle;resizable=0;points=[];" parent="JPFXPbjXNzHNKCanP8BA-21" vertex="1" connectable="0">
          <mxGeometry x="-0.016" y="-1" relative="1" as="geometry">
            <mxPoint as="offset" />
          </mxGeometry>
        </mxCell>
        <mxCell id="JPFXPbjXNzHNKCanP8BA-23" value="" style="endArrow=none;html=1;rounded=0;" parent="1" edge="1">
          <mxGeometry width="50" height="50" relative="1" as="geometry">
            <mxPoint y="660" as="sourcePoint" />
            <mxPoint x="250" y="660" as="targetPoint" />
          </mxGeometry>
        </mxCell>
        <mxCell id="JPFXPbjXNzHNKCanP8BA-24" value="Analyse the products productions independent" style="edgeLabel;html=1;align=center;verticalAlign=middle;resizable=0;points=[];" parent="JPFXPbjXNzHNKCanP8BA-23" vertex="1" connectable="0">
          <mxGeometry x="-0.016" y="-1" relative="1" as="geometry">
            <mxPoint as="offset" />
          </mxGeometry>
        </mxCell>
        <mxCell id="JPFXPbjXNzHNKCanP8BA-25" value="" style="endArrow=none;html=1;rounded=0;" parent="1" edge="1">
          <mxGeometry width="50" height="50" relative="1" as="geometry">
            <mxPoint x="550" y="390" as="sourcePoint" />
            <mxPoint x="800" y="390" as="targetPoint" />
          </mxGeometry>
        </mxCell>
        <mxCell id="JPFXPbjXNzHNKCanP8BA-26" value="Production time per station per order" style="edgeLabel;html=1;align=center;verticalAlign=middle;resizable=0;points=[];" parent="JPFXPbjXNzHNKCanP8BA-25" vertex="1" connectable="0">
          <mxGeometry x="-0.016" y="-1" relative="1" as="geometry">
            <mxPoint as="offset" />
          </mxGeometry>
        </mxCell>
        <mxCell id="JPFXPbjXNzHNKCanP8BA-27" value="" style="endArrow=none;html=1;rounded=0;" parent="1" edge="1">
          <mxGeometry width="50" height="50" relative="1" as="geometry">
            <mxPoint x="550" y="420" as="sourcePoint" />
            <mxPoint x="800" y="420" as="targetPoint" />
          </mxGeometry>
        </mxCell>
        <mxCell id="JPFXPbjXNzHNKCanP8BA-28" value="Rest time per station per order" style="edgeLabel;html=1;align=center;verticalAlign=middle;resizable=0;points=[];" parent="JPFXPbjXNzHNKCanP8BA-27" vertex="1" connectable="0">
          <mxGeometry x="-0.016" y="-1" relative="1" as="geometry">
            <mxPoint as="offset" />
          </mxGeometry>
        </mxCell>
        <mxCell id="JPFXPbjXNzHNKCanP8BA-30" value="" style="endArrow=none;html=1;rounded=0;" parent="1" edge="1">
          <mxGeometry width="50" height="50" relative="1" as="geometry">
            <mxPoint x="550" y="450" as="sourcePoint" />
            <mxPoint x="800" y="450" as="targetPoint" />
          </mxGeometry>
        </mxCell>
        <mxCell id="JPFXPbjXNzHNKCanP8BA-31" value="Supplier delivery time per station per order" style="edgeLabel;html=1;align=center;verticalAlign=middle;resizable=0;points=[];" parent="JPFXPbjXNzHNKCanP8BA-30" vertex="1" connectable="0">
          <mxGeometry x="-0.016" y="-1" relative="1" as="geometry">
            <mxPoint as="offset" />
          </mxGeometry>
        </mxCell>
        <mxCell id="JPFXPbjXNzHNKCanP8BA-33" value="" style="endArrow=none;html=1;rounded=0;" parent="1" edge="1">
          <mxGeometry width="50" height="50" relative="1" as="geometry">
            <mxPoint x="550" y="480" as="sourcePoint" />
            <mxPoint x="800" y="480" as="targetPoint" />
          </mxGeometry>
        </mxCell>
        <mxCell id="JPFXPbjXNzHNKCanP8BA-34" value="Total timer per order" style="edgeLabel;html=1;align=center;verticalAlign=middle;resizable=0;points=[];" parent="JPFXPbjXNzHNKCanP8BA-33" vertex="1" connectable="0">
          <mxGeometry x="-0.016" y="-1" relative="1" as="geometry">
            <mxPoint as="offset" />
          </mxGeometry>
        </mxCell>
        <mxCell id="JPFXPbjXNzHNKCanP8BA-35" value="" style="endArrow=none;html=1;rounded=0;" parent="1" edge="1">
          <mxGeometry width="50" height="50" relative="1" as="geometry">
            <mxPoint x="250" y="690" as="sourcePoint" />
            <mxPoint x="550" y="690" as="targetPoint" />
          </mxGeometry>
        </mxCell>
        <mxCell id="JPFXPbjXNzHNKCanP8BA-37" value="" style="endArrow=none;html=1;rounded=0;" parent="1" edge="1">
          <mxGeometry width="50" height="50" relative="1" as="geometry">
            <mxPoint x="350" y="840" as="sourcePoint" />
            <mxPoint x="267" y="720" as="targetPoint" />
          </mxGeometry>
        </mxCell>
        <mxCell id="JPFXPbjXNzHNKCanP8BA-38" value="" style="endArrow=none;html=1;rounded=0;" parent="1" edge="1">
          <mxGeometry width="50" height="50" relative="1" as="geometry">
            <mxPoint x="288" y="750" as="sourcePoint" />
            <mxPoint x="538" y="750" as="targetPoint" />
          </mxGeometry>
        </mxCell>
        <mxCell id="JPFXPbjXNzHNKCanP8BA-39" value="Computational time" style="edgeLabel;html=1;align=center;verticalAlign=middle;resizable=0;points=[];" parent="JPFXPbjXNzHNKCanP8BA-38" vertex="1" connectable="0">
          <mxGeometry x="-0.016" y="-1" relative="1" as="geometry">
            <mxPoint as="offset" />
          </mxGeometry>
        </mxCell>
        <mxCell id="JPFXPbjXNzHNKCanP8BA-40" value="" style="endArrow=none;html=1;rounded=0;" parent="1" edge="1">
          <mxGeometry width="50" height="50" relative="1" as="geometry">
            <mxPoint x="308" y="780" as="sourcePoint" />
            <mxPoint x="558" y="780" as="targetPoint" />
          </mxGeometry>
        </mxCell>
        <mxCell id="JPFXPbjXNzHNKCanP8BA-41" value="Mean tardiness" style="edgeLabel;html=1;align=center;verticalAlign=middle;resizable=0;points=[];" parent="JPFXPbjXNzHNKCanP8BA-40" vertex="1" connectable="0">
          <mxGeometry x="-0.016" y="-1" relative="1" as="geometry">
            <mxPoint as="offset" />
          </mxGeometry>
        </mxCell>
        <mxCell id="JPFXPbjXNzHNKCanP8BA-42" value="" style="endArrow=none;html=1;rounded=0;" parent="1" edge="1">
          <mxGeometry width="50" height="50" relative="1" as="geometry">
            <mxPoint x="330" y="810" as="sourcePoint" />
            <mxPoint x="580" y="810" as="targetPoint" />
          </mxGeometry>
        </mxCell>
        <mxCell id="JPFXPbjXNzHNKCanP8BA-43" value="maximum production &amp;amp; rest time" style="edgeLabel;html=1;align=center;verticalAlign=middle;resizable=0;points=[];" parent="JPFXPbjXNzHNKCanP8BA-42" vertex="1" connectable="0">
          <mxGeometry x="-0.016" y="-1" relative="1" as="geometry">
            <mxPoint as="offset" />
          </mxGeometry>
        </mxCell>
        <mxCell id="JPFXPbjXNzHNKCanP8BA-44" value="" style="endArrow=none;html=1;rounded=0;" parent="1" edge="1">
          <mxGeometry width="50" height="50" relative="1" as="geometry">
            <mxPoint x="350" y="840" as="sourcePoint" />
            <mxPoint x="600" y="840" as="targetPoint" />
          </mxGeometry>
        </mxCell>
        <mxCell id="JPFXPbjXNzHNKCanP8BA-45" value="resilience of&amp;nbsp;" style="edgeLabel;html=1;align=center;verticalAlign=middle;resizable=0;points=[];" parent="JPFXPbjXNzHNKCanP8BA-44" vertex="1" connectable="0">
          <mxGeometry x="-0.016" y="-1" relative="1" as="geometry">
            <mxPoint as="offset" />
          </mxGeometry>
        </mxCell>
        <mxCell id="aAULgi5kDSL-seJQbpHH-1" value="" style="endArrow=none;html=1;rounded=0;" parent="1" edge="1">
          <mxGeometry width="50" height="50" relative="1" as="geometry">
            <mxPoint y="690" as="sourcePoint" />
            <mxPoint x="250" y="690" as="targetPoint" />
          </mxGeometry>
        </mxCell>
        <mxCell id="aAULgi5kDSL-seJQbpHH-2" value="Analyse the products productions independent" style="edgeLabel;html=1;align=center;verticalAlign=middle;resizable=0;points=[];" parent="aAULgi5kDSL-seJQbpHH-1" vertex="1" connectable="0">
          <mxGeometry x="-0.016" y="-1" relative="1" as="geometry">
            <mxPoint as="offset" />
          </mxGeometry>
        </mxCell>
      </root>
    </mxGraphModel>
  </diagram>
</mxfile>
